# xmcd
# 
# Track frame offsets:
#     150
#     28800
#     66750
#     97575
#     134625
#     179775
#     220575
#     257925
#     290325
# 
# Disc length: 4324
# 
# Revision: 2
# Processed by: cddbd v1.5.2PL0 Copyright (c) Steve Scherf et al.
# Submitted via: BonkEnc v1.0.8
# 
DISCID=8810e209
DTITLE=Jeff Palmer - Shades Of The Pine
DYEAR=1994
DGENRE=Jazz
TTITLE0=A Happy Trail
TTITLE1=Shades Of Pine
TTITLE2=Pressure Point
TTITLE3=Ba-lue Bolivar Ba-lues-are
TTITLE4=Roobarb
TTITLE5=Da Wa
TTITLE6=Hokus Pokus
TTITLE7=Kwabena
TTITLE8=Fat Feel
EXTD=YEAR: 1995
EXTT0=
EXTT1=
EXTT2=
EXTT3=
EXTT4=
EXTT5=
EXTT6=
EXTT7=
EXTT8=
PLAYORDER=
